# xmcd
#
# Track frame offsets:
#	150
#	22261
#	39312
#	60134
#	79707
#	98563
#	115209
#	129080
#
# Disc length: 1949 seconds
#
# Revision: 0
# Processed by: cddbd v1.5.2PL0 Copyright (c) Steve Scherf et al.
# Submitted via: EZCDAudioConverter 4.0.1.1
#
DISCID=53079b08
DTITLE=James Day - Songs
DYEAR=2016
DGENRE=R&B
TTITLE0=We Dance ft Maysa. U-Nam, and Cool Million
TTITLE1=Don't Waste The Pretty ft Glenn Jones and U-Nam
TTITLE2=Dance Again ft Trina Broussard and Tim Owens
TTITLE3=Repertoire ft Tony Terry and Lin Rountree
TTITLE4=Rewind ft Audrey Wheeler
TTITLE5=Natural Thing ft Audrey Wheeler, Walter Beasley and U-Nam
TTITLE6=Considered Delivered ft Gavin Christopher, Audrey Wheeler and Joe Cunnin
TTITLE6=gham
TTITLE7=R.S.V.P. ft Donnie and U-Nam  
EXTD=
EXTT0=
EXTT1=
EXTT2=
EXTT3=
EXTT4=
EXTT5=
EXTT6=
EXTT7=
PLAYORDER=
